<svg width="183" height="32" viewBox="0 0 183 32" fill="none" xmlns="http://www.w3.org/2000/svg">
<g clip-path="url(#clip0_74_3658)">
<path d="M29.3864 22.7101C29.2429 22.3073 29.0752 21.9176 28.9157 21.5565C28.6701 21.0011 28.4129 20.4446 28.1641 19.9067L28.1444 19.864C25.9255 15.0589 23.5439 10.1881 21.0659 5.38701L20.9607 5.18316C20.7079 4.69289 20.4466 4.18596 20.1784 3.68786C19.8604 3.0575 19.4745 2.4636 19.0276 1.91668C18.5245 1.31651 17.8956 0.833822 17.1853 0.502654C16.475 0.171486 15.7005 -9.83959e-05 14.9165 4.23316e-08C14.1325 9.84805e-05 13.3581 0.171877 12.6478 0.503224C11.9376 0.834571 11.3088 1.31742 10.8059 1.91771C10.3595 2.46476 9.97383 3.05853 9.65572 3.68858C9.38521 4.19115 9.12145 4.70278 8.8664 5.19757L8.76872 5.38696C6.29061 10.1884 3.90903 15.0592 1.69015 19.8639L1.65782 19.9338C1.41334 20.463 1.16057 21.0102 0.919073 21.5563C0.75949 21.9171 0.592009 22.3065 0.448355 22.7103C0.0369063 23.8104 -0.094204 24.9953 0.0668098 26.1585C0.237562 27.334 0.713008 28.4447 1.44606 29.3804C2.17911 30.3161 3.14434 31.0444 4.24614 31.4932C5.07835 31.8299 5.96818 32.002 6.86616 32C7.14824 31.9999 7.43008 31.9835 7.71027 31.9509C8.846 31.8062 9.94136 31.4366 10.9321 30.8639C12.2317 30.1338 13.5152 29.0638 14.9173 27.5348C16.3194 29.0638 17.6029 30.1338 18.9025 30.8639C19.8932 31.4367 20.9886 31.8062 22.1243 31.9509C22.4045 31.9835 22.6864 31.9999 22.9685 32C23.8664 32.002 24.7561 31.8299 25.5883 31.4932C26.6901 31.0444 27.6554 30.3161 28.3885 29.3804C29.1216 28.4447 29.5971 27.3341 29.7679 26.1585C29.9287 24.9952 29.7976 23.8103 29.3864 22.7101ZM14.9173 24.377C13.1816 22.1769 12.0678 20.1338 11.677 18.421C11.5169 17.7792 11.4791 17.1131 11.5656 16.4573C11.6339 15.9766 11.8105 15.5176 12.0821 15.1148C12.4163 14.6814 12.8458 14.3304 13.3374 14.0889C13.829 13.8475 14.3696 13.7219 14.9175 13.7219C15.4655 13.722 16.006 13.8476 16.4976 14.0892C16.9892 14.3307 17.4186 14.6817 17.7528 15.1151C18.0244 15.5181 18.201 15.9771 18.2693 16.4579C18.3556 17.114 18.3177 17.7803 18.1573 18.4223C17.7661 20.1349 16.6526 22.1774 14.9173 24.377ZM27.7406 25.8689C27.6212 26.6908 27.2887 27.4674 26.7762 28.1216C26.2636 28.7759 25.5887 29.2852 24.8183 29.599C24.0393 29.9111 23.1939 30.0217 22.3607 29.9205C21.4946 29.8089 20.6599 29.5239 19.9069 29.0824C18.7501 28.4325 17.5791 27.4348 16.2614 25.9712C18.3591 23.3846 19.669 21.0005 20.154 18.877C20.3723 17.984 20.4196 17.0579 20.2935 16.1475C20.1791 15.3632 19.8879 14.615 19.4419 13.9593C18.9194 13.2519 18.2378 12.6768 17.452 12.2805C16.6661 11.8842 15.798 11.6777 14.9175 11.6777C14.0371 11.6777 13.1689 11.8841 12.383 12.2803C11.5971 12.6765 10.9155 13.2515 10.393 13.9589C9.94707 14.6144 9.65591 15.3624 9.5414 16.1465C9.41524 17.0566 9.4623 17.9822 9.68011 18.8749C10.1648 20.9993 11.4748 23.384 13.5732 25.9714C12.2555 27.4348 11.0845 28.4325 9.92769 29.0825C9.17468 29.5239 8.34007 29.809 7.47395 29.9205C6.64065 30.0217 5.79525 29.9111 5.0162 29.599C4.24581 29.2852 3.57092 28.7759 3.05838 28.1217C2.54585 27.4674 2.21345 26.6908 2.09411 25.8689C1.97932 25.0334 2.07701 24.1825 2.37818 23.3946C2.49266 23.0728 2.62663 22.757 2.7926 22.3818C3.0274 21.851 3.27657 21.3115 3.51759 20.7898L3.54996 20.7197C5.75643 15.9419 8.12481 11.0982 10.5894 6.32294L10.6875 6.13283C10.9384 5.64601 11.1979 5.14267 11.4597 4.6563C11.7101 4.15501 12.0132 3.68171 12.3639 3.2444C12.6746 2.86903 13.0646 2.56681 13.5059 2.35934C13.9473 2.15186 14.4291 2.04426 14.9169 2.04422C15.4047 2.04418 15.8866 2.15171 16.3279 2.35911C16.7693 2.56651 17.1593 2.86867 17.4701 3.24399C17.821 3.68097 18.1242 4.15411 18.3744 4.65538C18.6338 5.13742 18.891 5.63623 19.1398 6.11858L19.2452 6.32315C21.7097 11.0979 24.078 15.9415 26.2847 20.7201L26.3046 20.7631C26.5498 21.2936 26.8033 21.8419 27.042 22.382C27.2082 22.7577 27.3424 23.0738 27.4566 23.3944C27.7576 24.1824 27.8553 25.0333 27.7406 25.8689Z" fill="#590BD8"/>
<path d="M49.46 14.22H47.52V23H44.68V14.22H43.42V11.92H44.68V11.36C44.68 10 45.0667 9 45.84 8.36C46.6133 7.72 47.78 7.42 49.34 7.46V9.82C48.66 9.80667 48.1867 9.92 47.92 10.16C47.6533 10.4 47.52 10.8333 47.52 11.46V11.92H49.46V14.22ZM61.7345 11.92V23H58.9145V21.6C58.5545 22.08 58.0812 22.46 57.4945 22.74C56.9212 23.0067 56.2945 23.14 55.6145 23.14C54.7479 23.14 53.9812 22.96 53.3145 22.6C52.6479 22.2267 52.1212 21.6867 51.7345 20.98C51.3612 20.26 51.1745 19.4067 51.1745 18.42V11.92H53.9745V18.02C53.9745 18.9 54.1945 19.58 54.6345 20.06C55.0745 20.5267 55.6745 20.76 56.4345 20.76C57.2079 20.76 57.8145 20.5267 58.2545 20.06C58.6945 19.58 58.9145 18.9 58.9145 18.02V11.92H61.7345ZM67.2972 8.2V23H64.4972V8.2H67.2972ZM72.8636 8.2V23H70.0636V8.2H72.8636ZM79.87 23.18C78.9633 23.18 78.15 23.02 77.43 22.7C76.71 22.3667 76.1367 21.92 75.71 21.36C75.2967 20.8 75.07 20.18 75.03 19.5H77.85C77.9033 19.9267 78.11 20.28 78.47 20.56C78.8433 20.84 79.3033 20.98 79.85 20.98C80.3833 20.98 80.7967 20.8733 81.09 20.66C81.3967 20.4467 81.55 20.1733 81.55 19.84C81.55 19.48 81.3633 19.2133 80.99 19.04C80.63 18.8533 80.05 18.6533 79.25 18.44C78.4233 18.24 77.7433 18.0333 77.21 17.82C76.69 17.6067 76.2367 17.28 75.85 16.84C75.4767 16.4 75.29 15.8067 75.29 15.06C75.29 14.4467 75.4633 13.8867 75.81 13.38C76.17 12.8733 76.6767 12.4733 77.33 12.18C77.9967 11.8867 78.7767 11.74 79.67 11.74C80.99 11.74 82.0433 12.0733 82.83 12.74C83.6167 13.3933 84.05 14.28 84.13 15.4H81.45C81.41 14.96 81.2233 14.6133 80.89 14.36C80.57 14.0933 80.1367 13.96 79.59 13.96C79.0833 13.96 78.69 14.0533 78.41 14.24C78.1433 14.4267 78.01 14.6867 78.01 15.02C78.01 15.3933 78.1967 15.68 78.57 15.88C78.9433 16.0667 79.5233 16.26 80.31 16.46C81.11 16.66 81.77 16.8667 82.29 17.08C82.81 17.2933 83.2567 17.6267 83.63 18.08C84.0167 18.52 84.2167 19.1067 84.23 19.84C84.23 20.48 84.05 21.0533 83.69 21.56C83.3433 22.0667 82.8367 22.4667 82.17 22.76C81.5167 23.04 80.75 23.18 79.87 23.18ZM89.7884 14.22V19.58C89.7884 19.9533 89.8751 20.2267 90.0484 20.4C90.2351 20.56 90.5418 20.64 90.9684 20.64H92.2684V23H90.5084C88.1484 23 86.9684 21.8533 86.9684 19.56V14.22H85.6484V11.92H86.9684V9.18H89.7884V11.92H92.2684V14.22H89.7884ZM93.5623 17.42C93.5623 16.3 93.7823 15.3067 94.2223 14.44C94.6757 13.5733 95.2823 12.9067 96.0423 12.44C96.8157 11.9733 97.6757 11.74 98.6223 11.74C99.449 11.74 100.169 11.9067 100.782 12.24C101.409 12.5733 101.909 12.9933 102.282 13.5V11.92H105.102V23H102.282V21.38C101.922 21.9 101.422 22.3333 100.782 22.68C100.156 23.0133 99.429 23.18 98.6023 23.18C97.669 23.18 96.8157 22.94 96.0423 22.46C95.2823 21.98 94.6757 21.3067 94.2223 20.44C93.7823 19.56 93.5623 18.5533 93.5623 17.42ZM102.282 17.46C102.282 16.78 102.149 16.2 101.882 15.72C101.616 15.2267 101.256 14.8533 100.802 14.6C100.349 14.3333 99.8623 14.2 99.3423 14.2C98.8223 14.2 98.3423 14.3267 97.9023 14.58C97.4623 14.8333 97.1023 15.2067 96.8223 15.7C96.5557 16.18 96.4223 16.7533 96.4223 17.42C96.4223 18.0867 96.5557 18.6733 96.8223 19.18C97.1023 19.6733 97.4623 20.0533 97.9023 20.32C98.3557 20.5867 98.8357 20.72 99.3423 20.72C99.8623 20.72 100.349 20.5933 100.802 20.34C101.256 20.0733 101.616 19.7 101.882 19.22C102.149 18.7267 102.282 18.14 102.282 17.46ZM107.117 17.46C107.117 16.3133 107.35 15.3133 107.817 14.46C108.284 13.5933 108.93 12.9267 109.757 12.46C110.584 11.98 111.53 11.74 112.597 11.74C113.97 11.74 115.104 12.0867 115.997 12.78C116.904 13.46 117.51 14.42 117.817 15.66H114.797C114.637 15.18 114.364 14.8067 113.977 14.54C113.604 14.26 113.137 14.12 112.577 14.12C111.777 14.12 111.144 14.4133 110.677 15C110.21 15.5733 109.977 16.3933 109.977 17.46C109.977 18.5133 110.21 19.3333 110.677 19.92C111.144 20.4933 111.777 20.78 112.577 20.78C113.71 20.78 114.45 20.2733 114.797 19.26H117.817C117.51 20.46 116.904 21.4133 115.997 22.12C115.09 22.8267 113.957 23.18 112.597 23.18C111.53 23.18 110.584 22.9467 109.757 22.48C108.93 22 108.284 21.3333 107.817 20.48C107.35 19.6133 107.117 18.6067 107.117 17.46ZM126.428 23L122.668 18.28V23H119.868V8.2H122.668V16.62L126.388 11.92H130.028L125.148 17.48L130.068 23H126.428ZM146.908 11.92L143.668 23H140.648L138.628 15.26L136.608 23H133.568L130.308 11.92H133.148L135.108 20.36L137.228 11.92H140.188L142.268 20.34L144.228 11.92H146.908ZM158.723 17.22C158.723 17.62 158.696 17.98 158.643 18.3H150.543C150.61 19.1 150.89 19.7267 151.383 20.18C151.876 20.6333 152.483 20.86 153.203 20.86C154.243 20.86 154.983 20.4133 155.423 19.52H158.443C158.123 20.5867 157.51 21.4667 156.603 22.16C155.696 22.84 154.583 23.18 153.263 23.18C152.196 23.18 151.236 22.9467 150.383 22.48C149.543 22 148.883 21.3267 148.403 20.46C147.936 19.5933 147.703 18.5933 147.703 17.46C147.703 16.3133 147.936 15.3067 148.403 14.44C148.87 13.5733 149.523 12.9067 150.363 12.44C151.203 11.9733 152.17 11.74 153.263 11.74C154.316 11.74 155.256 11.9667 156.083 12.42C156.923 12.8733 157.57 13.52 158.023 14.36C158.49 15.1867 158.723 16.14 158.723 17.22ZM155.823 16.42C155.81 15.7 155.55 15.1267 155.043 14.7C154.536 14.26 153.916 14.04 153.183 14.04C152.49 14.04 151.903 14.2533 151.423 14.68C150.956 15.0933 150.67 15.6733 150.563 16.42H155.823ZM171.067 17.22C171.067 17.62 171.04 17.98 170.987 18.3H162.887C162.953 19.1 163.233 19.7267 163.727 20.18C164.22 20.6333 164.827 20.86 165.547 20.86C166.587 20.86 167.327 20.4133 167.767 19.52H170.787C170.467 20.5867 169.853 21.4667 168.947 22.16C168.04 22.84 166.927 23.18 165.607 23.18C164.54 23.18 163.58 22.9467 162.727 22.48C161.887 22 161.227 21.3267 160.747 20.46C160.28 19.5933 160.047 18.5933 160.047 17.46C160.047 16.3133 160.28 15.3067 160.747 14.44C161.213 13.5733 161.867 12.9067 162.707 12.44C163.547 11.9733 164.513 11.74 165.607 11.74C166.66 11.74 167.6 11.9667 168.427 12.42C169.267 12.8733 169.913 13.52 170.367 14.36C170.833 15.1867 171.067 16.14 171.067 17.22ZM168.167 16.42C168.153 15.7 167.893 15.1267 167.387 14.7C166.88 14.26 166.26 14.04 165.527 14.04C164.833 14.04 164.247 14.2533 163.767 14.68C163.3 15.0933 163.013 15.6733 162.907 16.42H168.167ZM179.67 23L175.91 18.28V23H173.11V8.2H175.91V16.62L179.63 11.92H183.27L178.39 17.48L183.31 23H179.67Z" fill="#590BD8"/>
</g>
<defs>
<clipPath id="clip0_74_3658">
<rect width="183" height="32" fill="white"/>
</clipPath>
</defs>
</svg>
